<?xml version="1.0" encoding="UTF-8"?>
<svg id="logo-black" xmlns="http://www.w3.org/2000/svg" viewBox="0 0 952.2 166.82" fill="black">
	<defs>
		<style>.cls-1{fill:#000;}</style>
	</defs>
	<g>
		<path d="M291.9,83.96h12.8v36.4c-9.33,7.87-22.27,11.87-35.33,11.87-28.67,0-49.73-20.13-49.73-47.73s21.07-47.73,50-47.73c14.8,0,27.33,4.93,35.87,14.4l-8.27,8.27c-7.73-7.47-16.53-10.8-27.07-10.8-21.6,0-37.2,15.07-37.2,35.87s15.6,35.87,37.07,35.87c7.87,0,15.2-1.73,21.87-6v-30.4Z"/>
		<path d="M328.02,37.83h13.33v93.33h-13.33V37.83Z"/>
		<path d="M451.64,37.83l-40.93,93.33h-13.2l-41.07-93.33h14.4l33.6,76.67,33.87-76.67h13.33Z"/>
		<path d="M531.24,119.56v11.6h-67.73V37.83h65.87v11.6h-52.53v28.67h46.8v11.33h-46.8v30.13h54.4Z"/>
		<path d="M607.25,49.42h-32v-11.6h77.2v11.6h-32v81.73h-13.2V49.42Z"/>
		<path d="M731.27,131.16l-20.13-28.67c-1.87.13-3.87.27-5.87.27h-23.07v28.4h-13.33V37.83h36.4c24.27,0,38.93,12.27,38.93,32.53,0,14.4-7.47,24.8-20.53,29.47l22.13,31.33h-14.53ZM730.87,70.36c0-13.33-8.93-20.93-26-20.93h-22.67v42h22.67c17.07,0,26-7.73,26-21.07Z"/>
		<path d="M756.69,84.49c0-27.33,21.07-47.73,49.73-47.73s49.47,20.27,49.47,47.73-21.07,47.73-49.47,47.73-49.73-20.4-49.73-47.73ZM842.55,84.49c0-20.67-15.47-35.87-36.13-35.87s-36.4,15.2-36.4,35.87,15.47,35.87,36.4,35.87,36.13-15.2,36.13-35.87Z"/>
		<path d="M952.2,37.83v93.33h-10.93l-56-69.6v69.6h-13.33V37.83h10.93l56,69.6V37.83h13.33Z"/>
		<path d="M130.13,35.16C123.93,14.83,105,0,82.66,0s-41.52,15.03-47.58,35.58C14.8,41.8,0,60.71,0,83.01s14.68,41.06,34.83,47.37c5.79,20.98,25.04,36.44,47.83,36.44s41.8-15.26,47.72-36.02c20.9-5.83,36.28-25.05,36.28-47.79s-15.5-42.1-36.53-47.85ZM125.96,49.6c0,11.38-4.4,21.74-11.6,29.48-4.93-4.1-10.66-7.27-16.92-9.23-1.91-6.92-5.28-13.25-9.77-18.61,7.73-7.15,18.05-11.53,29.38-11.53,2.71,0,5.36.25,7.93.73.64,2.95.98,6.02.98,9.16ZM98.85,77.05c3.93,1.59,7.58,3.74,10.84,6.36-3.29,2.64-6.98,4.81-10.95,6.39.31-2.22.47-4.49.47-6.79,0-2.02-.12-4.01-.36-5.96ZM82.66,92.9c-2.7,0-5.35-.25-7.92-.73-.64-2.95-.98-6.02-.98-9.16,0-2.85.28-5.64.81-8.34,2.62-.5,5.33-.76,8.09-.76,3.26,0,6.43.36,9.49,1.05.49,2.61.75,5.3.75,8.05,0,3.04-.31,6.01-.91,8.88-3.01.66-6.13,1.01-9.33,1.01ZM89.97,98.67c-1.62,4.17-3.87,8.03-6.64,11.46-2.73-3.38-4.95-7.17-6.57-11.27,1.94.23,3.9.35,5.9.35,2.48,0,4.92-.18,7.31-.54ZM76.44,68c1.64-4.42,3.98-8.5,6.89-12.11,2.95,3.66,5.32,7.81,6.96,12.3-2.49-.38-5.04-.58-7.63-.58-2.11,0-4.18.13-6.22.39ZM82.66,6.31c18.29,0,33.96,11.39,40.3,27.45-1.94-.23-3.91-.35-5.91-.35-13.01,0-24.87,5.03-33.72,13.25-8.85-8.22-20.71-13.25-33.72-13.25-2.48,0-4.92.18-7.31.54,6.28-16.16,22.01-27.64,40.36-27.64ZM40.29,40.72c3-.66,6.12-1.01,9.32-1.01,11.33,0,21.65,4.38,29.38,11.53-4.4,5.26-7.73,11.43-9.66,18.19-6.82,1.91-13.06,5.24-18.36,9.65-7.19-7.74-11.6-18.1-11.6-29.48,0-3.04.32-6.01.92-8.88ZM67.99,90.34c-4.51-1.62-8.67-3.98-12.35-6.93,3.65-2.93,7.77-5.27,12.24-6.9-.29,2.13-.43,4.3-.43,6.5,0,2.49.18,4.94.54,7.33ZM33.42,123.17c-15.88-6.42-27.11-22-27.11-40.16s11.28-33.8,27.22-40.2c-.31,2.22-.47,4.49-.47,6.79,0,13.05,5.06,24.95,13.33,33.81-8.27,8.86-13.33,20.75-13.33,33.8,0,2.02.12,4.01.36,5.96ZM39.37,117.21c0-11.38,4.41-21.73,11.6-29.47,5.37,4.47,11.7,7.83,18.62,9.72,1.96,6.42,5.19,12.29,9.4,17.32-7.73,7.15-18.05,11.53-29.38,11.53-3.26,0-6.43-.36-9.49-1.05-.49-2.61-.75-5.3-.75-8.05ZM82.66,160.51c-18.66,0-34.61-11.87-40.68-28.47,2.49.38,5.04.58,7.63.58,13.01,0,24.87-5.03,33.72-13.26,8.85,8.23,20.71,13.26,33.72,13.26,2.11,0,4.18-.13,6.22-.39-6.12,16.5-22.01,28.28-40.61,28.28ZM125.15,125.55c-2.63.5-5.33.76-8.1.76-11.33,0-21.65-4.38-29.38-11.53,4.3-5.14,7.58-11.16,9.52-17.74,6.36-1.95,12.18-5.15,17.17-9.3,7.2,7.74,11.6,18.09,11.6,29.47,0,2.85-.28,5.64-.81,8.34ZM131.84,123.71c.29-2.13.43-4.3.43-6.5,0-13.05-5.06-24.94-13.33-33.8,8.27-8.86,13.33-20.76,13.33-33.81,0-2.49-.18-4.94-.54-7.33,16.67,6.03,28.62,22.02,28.62,40.74s-11.9,34.64-28.51,40.7Z"/>
	</g>
</svg>